/* XPM */
static const char *zoom_in[] = {
/* columns rows colors chars-per-pixel */
"16 16 2 1 ",
"  c black",
". c None",
/* pixels */
"....     .......",
"..  .....  .....",
".  .......  ....",
". .... .... ....",
" ..... ..... ...",
" ..... ..... ...",
" ..       .. ...",
" ..... ..... ...",
" ..... ..... ...",
". .... .... ....",
".  .......  ....",
"..  .....    ...",
"....     ..   ..",
"............   .",
".............   ",
"..............  "
};
